<?xml version="1.0" encoding="UTF-8"?>
<svg width="20px" height="20px" viewBox="0 0 20 20" version="1.1" xmlns="http://www.w3.org/2000/svg" xmlns:xlink="http://www.w3.org/1999/xlink">
    <g id="search-icon" stroke="none" stroke-width="1" fill="none" fill-rule="evenodd">
        <path d="M7,0 C3.1458514,0 0,3.1458514 0,7 C0,10.854149 3.1458514,14 7,14 C8.747998,14 10.345009,13.348024 11.574219,12.28125 L12,12.707031 L12,14 L18,20 L20,18 L14,12 L12.707031,12 L12.28125,11.574219 C13.348024,10.345009 14,8.747998 14,7 C14,3.1458514 10.854149,0 7,0 Z M7,2 C9.773268,2 12,4.2267316 12,7 C12,9.773268 9.773268,12 7,12 C4.2267316,12 2,9.773268 2,7 C2,4.2267316 4.2267316,2 7,2 Z" id="Search" fill="#969696" fill-rule="nonzero"></path>
    </g>
</svg>
